<svg width="100" height="100" viewBox="0 0 100 100" fill="none" xmlns="http://www.w3.org/2000/svg">
<g clip-path="url(#clip0_82_2)">
<path d="M81.0325 55.4077C82.9368 55.7397 84.2285 57.5594 83.7082 59.4211C82.3181 64.3949 79.8401 69.0143 76.4367 72.9369C72.2664 77.7436 66.8645 81.322 60.8124 83.2879C54.76 85.2537 48.2862 85.5325 42.0875 84.0938C35.8887 82.6553 30.1994 79.554 25.6316 75.1233C21.0638 70.6928 17.7903 65.1007 16.1633 58.9486C14.5363 52.7967 14.6173 46.3174 16.3977 40.208C18.178 34.0986 21.5902 28.5901 26.2674 24.2752C30.0844 20.7537 34.6261 18.1359 39.5552 16.5948C41.4002 16.0179 43.2584 17.2537 43.6482 19.147C44.038 21.0403 42.8086 22.8702 40.9787 23.493C37.2921 24.7477 33.895 26.7622 31.0139 29.4202C27.2722 32.8721 24.5424 37.2789 23.1181 42.1664C21.6939 47.0538 21.6291 52.2373 22.9307 57.1589C24.2323 62.0805 26.851 66.5541 30.5053 70.0987C34.1595 73.643 38.711 76.1242 43.67 77.2752C48.6292 78.4261 53.808 78.203 58.65 76.6303C63.4916 75.0576 67.813 72.1949 71.1493 68.3496C73.7183 65.3886 75.6282 61.9317 76.7698 58.2086C77.3365 56.3606 79.1282 55.0758 81.0325 55.4077Z" fill="#289CA4"/>
<path fill-rule="evenodd" clip-rule="evenodd" d="M48.6 17.9167C48.6 17.0902 48.9438 16.344 49.4963 15.8132C49.8413 15.4646 50.2776 15.2108 50.77 15.0965C51.0083 15.0335 51.2585 15 51.5166 15C51.7278 15 51.9334 15.0224 52.1318 15.065C55.7683 15.2869 59.3555 16.0757 62.7616 17.4095C67.2783 19.1782 71.3783 21.8664 74.801 25.3037C78.2237 28.7409 80.8948 32.8521 82.6442 37.3764C83.9853 40.8439 84.7623 44.496 84.9533 48.1946C84.9839 48.364 85 48.5385 85 48.7167C85 50.3275 83.6942 51.6333 82.0833 51.6333H51.5166C49.9058 51.6333 48.6 50.3275 48.6 48.7167C48.6 48.6776 48.6008 48.6388 48.6023 48.6C48.6008 48.5612 48.6 48.5224 48.6 48.4833V17.9167ZM54.4333 45.8H77.6832C77.3778 43.7878 76.8534 41.8095 76.1155 39.9011C74.7158 36.2817 72.5791 32.9927 69.8409 30.2429C67.1027 27.4931 63.8226 25.3425 60.2092 23.9276C58.3408 23.1959 56.4041 22.6692 54.4333 22.3532V45.8Z" fill="#289CA4"/>
</g>
<defs>
<clipPath id="clip0_82_2">
<rect width="70" height="70" fill="white" transform="translate(15 15)"/>
</clipPath>
</defs>
</svg>
