<svg width="100" height="100" viewBox="0 0 100 100" fill="none" xmlns="http://www.w3.org/2000/svg">
<path d="M46.4448 59.1455H33.7305C32.9781 59.1455 32.3688 59.755 32.3688 60.507V80.248C32.3688 81 32.9781 81.6095 33.7305 81.6095H46.4448C47.1972 81.6095 47.8056 81 47.8056 80.248V60.5065C47.8056 59.754 47.1963 59.1455 46.4448 59.1455Z" fill="#289CA4"/>
<path d="M66.269 18.3911H53.5547C52.8023 18.3911 52.193 19.0004 52.193 19.7528V80.249C52.193 81.0015 52.8023 81.6105 53.5547 81.6105H66.269C67.0215 81.6105 67.6305 81.0015 67.6305 80.249V19.7528C67.6305 19.0004 67.0215 18.3911 66.269 18.3911Z" fill="#289CA4"/>
<path d="M86.195 36.77H73.481C72.7285 36.77 72.119 37.3793 72.119 38.1317V80.249C72.119 81.0015 72.7285 81.6105 73.481 81.6105H86.194C86.9465 81.6105 87.556 81.0015 87.556 80.249V38.1317C87.556 37.3802 86.9465 36.77 86.195 36.77Z" fill="#289CA4"/>
<path d="M26.5186 36.77H13.8043C13.0519 36.77 12.4426 37.3793 12.4426 38.1317V80.249C12.4426 81.0015 13.0519 81.6105 13.8043 81.6105H26.5186C27.271 81.6105 27.8803 81.0015 27.8803 80.249V38.1317C27.8803 37.3802 27.271 36.77 26.5186 36.77Z" fill="#289CA4"/>
</svg>
