<svg width="100" height="100" viewBox="0 0 100 100" fill="none" xmlns="http://www.w3.org/2000/svg">
<path d="M46.6363 74.9999V81.6665H19.7273C16.0273 81.6665 13 78.6668 13 74.9999V21.6667C13 18 16.0273 15 19.7273 15H80.2728C83.9728 15 87 18 87 21.6667V48.6668L86.3272 48C84.6453 46.3335 82.6272 45.3333 80.2728 45.3333V28.3333H19.7273V74.9999H46.6363ZM81.6181 52.6667L85.9909 57C86.6637 57.6668 86.6637 59 85.9909 59.6667L82.6272 62.9999L75.5637 55.9999L78.9272 52.6667C79.2637 52.3333 79.6 52 80.2728 52C80.9453 52 81.2819 52.3333 81.6181 52.6667ZM80.6091 64.6668L60.4272 85H53.3637V78L73.8819 57.6668L80.6091 64.6668Z" fill="#289CA4"/>
</svg>
