<svg width="100" height="100" viewBox="0 0 100 100" fill="none" xmlns="http://www.w3.org/2000/svg">
<path d="M50 90C72.0914 90 90 72.0914 90 50C90 27.9086 72.0914 10 50 10C27.9086 10 10 27.9086 10 50C10 72.0914 27.9086 90 50 90Z" fill="#289CA4"/>
<path d="M42.0345 59.9415C42.1929 60.0998 42.4247 60.1595 42.6399 60.0974L68.8395 34.1665L69.277 33.7336L69.2767 33.7334C69.2764 33.7331 69.2762 33.7327 69.2758 33.7325L67.9258 32.3676C67.9252 32.367 67.9244 32.3662 67.9238 32.3656C67.7797 32.218 67.6077 32.1005 67.4178 32.0198C67.2272 31.9388 67.0221 31.8964 66.8149 31.8955C66.6077 31.8945 66.4023 31.9348 66.2108 32.0141C66.0193 32.0934 65.8455 32.2099 65.6996 32.3571L65.6988 32.3579L43.1388 55.1889C43.0662 55.2623 43.0132 55.3529 42.9848 55.4523L41.8754 59.335C41.814 59.55 41.8741 59.7814 42.0322 59.9394L42.0345 59.9415ZM68.3882 29.5944C68.8784 29.8029 69.3234 30.1047 69.6983 30.4828C69.7079 30.4941 69.718 30.5051 69.7285 30.5156L71.0832 31.8873L71.5175 31.4585L71.0832 31.8873C72.7196 33.5443 72.728 36.2115 71.1175 37.8404L71.1174 37.8406L47.9216 61.3166L40.0507 63.5835C40.05 63.5836 40.0492 63.5838 40.0486 63.5841C39.7159 63.6765 39.36 63.6335 39.0588 63.4646C38.757 63.2952 38.5348 63.013 38.4409 62.6798L38.4392 62.6744C38.3688 62.4333 38.3677 62.1771 38.4363 61.9353L40.7288 53.8958L63.8639 30.4806C63.864 30.4804 63.8641 30.4803 63.8644 30.4801C64.2487 30.0932 64.7062 29.7867 65.2103 29.5784C65.7146 29.3699 66.2553 29.2641 66.8009 29.2668C67.3465 29.2696 67.886 29.381 68.3882 29.5944ZM46.8929 34.4822V34.4862C46.894 34.6585 46.8612 34.8294 46.7963 34.989C46.7314 35.1485 46.6357 35.2937 46.5146 35.4163C46.3935 35.5389 46.2495 35.6364 46.0906 35.7033C45.9323 35.7699 45.7625 35.8049 45.5906 35.806H37.9296C35.4666 35.806 33.4827 37.8249 33.4827 40.2977V63.5638C33.4827 66.0383 35.4663 68.0575 37.9296 68.0575H60.9184C63.3812 68.0575 65.3674 66.0388 65.3674 63.5638V55.8091C65.3674 55.071 65.9565 54.4852 66.6677 54.4852C67.3785 54.4852 67.9681 55.0705 67.9681 55.8113V63.5638C67.9681 67.5145 64.8042 70.7052 60.9184 70.7052H37.9296C34.0441 70.7052 30.8821 67.5148 30.8821 63.5638V40.2977C30.8821 36.3489 34.0439 33.1583 37.9296 33.1583H45.5925C46.3037 33.1583 46.8929 33.7439 46.8929 34.4822Z" fill="white" stroke="white" stroke-linejoin="round"/>
</svg>
