<svg width="333" height="333" viewBox="0 0 333 333" fill="none" xmlns="http://www.w3.org/2000/svg">
<g clip-path="url(#clip0_33_60)">
<path d="M314.126 192.226C323.185 193.805 329.33 202.461 326.855 211.318C320.242 234.979 308.454 256.954 292.263 275.614C272.425 298.48 246.727 315.504 217.936 324.855C189.144 334.207 158.347 335.534 128.859 328.689C99.3705 321.846 72.3058 307.093 50.576 286.015C28.8464 264.939 13.274 238.336 5.5341 209.07C-2.20583 179.805 -1.82044 148.981 6.64882 119.918C15.1181 90.855 31.3507 64.6504 53.6007 44.1236C71.7589 27.3715 93.3641 14.9183 116.813 7.58669C125.589 4.84254 134.429 10.7215 136.283 19.7282C138.138 28.7347 132.29 37.44 123.585 40.4028C106.047 46.3715 89.8863 55.9546 76.1804 68.599C58.3806 85.0203 45.3944 105.984 38.619 129.235C31.8437 152.485 31.5354 177.144 37.7272 200.556C43.9192 223.969 56.3771 245.25 73.7609 262.113C91.1446 278.974 112.796 290.777 136.387 296.252C159.979 301.727 184.615 300.666 207.649 293.184C230.682 285.703 251.239 272.085 267.11 253.792C279.332 239.706 288.417 223.261 293.848 205.55C296.543 196.759 305.067 190.647 314.126 192.226Z" fill="#CFEBEC"/>
<path fill-rule="evenodd" clip-rule="evenodd" d="M159.84 13.875C159.84 9.9432 161.476 6.39338 164.104 3.86864C165.745 2.21 167.821 1.00304 170.163 0.458868C171.297 0.159485 172.487 0 173.715 0C174.72 0 175.698 0.106606 176.641 0.309113C193.941 1.36478 211.005 5.11747 227.209 11.4623C248.695 19.8761 268.2 32.6645 284.482 49.0159C300.764 65.3675 313.471 84.925 321.793 106.448C328.173 122.943 331.869 140.316 332.778 157.911C332.924 158.717 333 159.547 333 160.395C333 168.058 326.788 174.27 319.125 174.27H173.715C166.052 174.27 159.84 168.058 159.84 160.395C159.84 160.209 159.844 160.025 159.851 159.84C159.844 159.655 159.84 159.471 159.84 159.285V13.875ZM187.59 146.52H298.193C296.74 136.948 294.246 127.537 290.735 118.458C284.077 101.24 273.912 85.594 260.886 72.5128C247.86 59.4316 232.256 49.2009 215.067 42.4698C206.178 38.9892 196.965 36.4836 187.59 34.9803V146.52Z" fill="#CFEBEC"/>
</g>
<defs>
<clipPath id="clip0_33_60">
<rect width="333" height="333" fill="white"/>
</clipPath>
</defs>
</svg>
