<svg width="315" height="297" viewBox="0 0 315 297" fill="none" xmlns="http://www.w3.org/2000/svg">
<g clip-path="url(#clip0_42_9)">
<path d="M171.46 254.571V282.857H285.766C301.484 282.857 314.343 270.129 314.343 254.571V28.2857C314.343 12.7286 301.484 0 285.766 0H28.5763C12.8591 0 0 12.7286 0 28.2857V142.843L2.85803 140.014C10.0024 132.943 18.5752 128.7 28.5763 128.7V56.5714H285.766V254.571H171.46ZM22.8615 159.814L4.28641 178.2C1.42838 181.029 1.42838 186.686 4.28641 189.514L18.5752 203.657L48.5798 173.957L34.2923 159.814C32.8627 158.4 31.4343 156.986 28.5763 156.986C25.7195 156.986 24.2899 158.4 22.8615 159.814ZM27.1479 210.729L112.878 297H142.883V267.3L55.7242 181.029L27.1479 210.729Z" fill="#CFEBEC"/>
</g>
<defs>
<clipPath id="clip0_42_9">
<rect width="314.343" height="297" fill="white" transform="matrix(-1 0 0 1 314.343 0)"/>
</clipPath>
</defs>
</svg>
