<svg width="286" height="279" viewBox="0 0 286 279" fill="none" xmlns="http://www.w3.org/2000/svg">
<path d="M131.98 173.949H91.0886C88.6688 173.949 86.709 176.244 86.709 179.075V253.409C86.709 256.24 88.6688 258.536 91.0886 258.536H131.98C134.4 258.536 136.357 256.24 136.357 253.409V179.074C136.357 176.24 134.397 173.949 131.98 173.949Z" fill="#CFEBEC"/>
<path d="M194.912 21.1467H154.022C151.603 21.1467 149.643 23.4347 149.643 26.2599V253.423C149.643 256.249 151.603 258.535 154.022 258.535H194.912C197.332 258.535 199.291 256.249 199.291 253.423V26.2599C199.291 23.4347 197.332 21.1467 194.912 21.1467Z" fill="#CFEBEC"/>
<path d="M257.909 90.0439H217.595C215.209 90.0439 213.276 92.3334 213.276 95.1606V253.419C213.276 256.247 215.209 258.535 217.595 258.535H257.906C260.292 258.535 262.225 256.247 262.225 253.419V95.1606C262.225 92.3368 260.292 90.0439 257.909 90.0439Z" fill="#CFEBEC"/>
<path d="M68.4061 90.0439H28.0926C25.7069 90.0439 23.775 92.3334 23.775 95.1606V253.419C23.775 256.247 25.7069 258.535 28.0926 258.535H68.4061C70.7918 258.535 72.7237 256.247 72.7237 253.419V95.1606C72.7237 92.3368 70.7918 90.0439 68.4061 90.0439Z" fill="#CFEBEC"/>
</svg>
