<svg width="345" height="337" viewBox="0 0 345 337" fill="none" xmlns="http://www.w3.org/2000/svg">
<path d="M159.207 210.11H109.88C106.961 210.11 104.597 212.882 104.597 216.302V306.089C104.597 309.509 106.961 312.281 109.88 312.281H159.207C162.126 312.281 164.487 309.509 164.487 306.089V216.3C164.487 212.877 162.123 210.11 159.207 210.11Z" fill="#CFEBEC"/>
<path d="M235.121 25.543H185.796C182.877 25.543 180.513 28.3065 180.513 31.7191V306.106C180.513 309.519 182.877 312.281 185.796 312.281H235.121C238.041 312.281 240.403 309.519 240.403 306.106V31.7191C240.403 28.3065 238.041 25.543 235.121 25.543Z" fill="#CFEBEC"/>
<path d="M311.114 108.763H262.483C259.605 108.763 257.274 111.528 257.274 114.943V306.102C257.274 309.517 259.605 312.281 262.483 312.281H311.111C313.989 312.281 316.32 309.517 316.32 306.102V114.943C316.32 111.532 313.989 108.763 311.114 108.763Z" fill="#CFEBEC"/>
<path d="M82.5179 108.763H33.8879C31.0102 108.763 28.6797 111.528 28.6797 114.943V306.102C28.6797 309.517 31.0102 312.281 33.8879 312.281H82.5179C85.3957 312.281 87.7261 309.517 87.7261 306.102V114.943C87.7261 111.532 85.3957 108.763 82.5179 108.763Z" fill="#CFEBEC"/>
</svg>
