<svg width="100" height="100" viewBox="0 0 100 100" fill="none" xmlns="http://www.w3.org/2000/svg">
<path d="M19.0625 19.0623C20.2346 17.8906 21.824 17.2324 23.4813 17.2324C25.1385 17.2324 26.728 17.8906 27.9 19.0623L50 41.1623L72.1 19.0623C73.2788 17.9238 74.8575 17.2939 76.4963 17.3081C78.135 17.3224 79.7026 17.9797 80.8614 19.1385C82.0202 20.2973 82.6775 21.8648 82.6917 23.5036C82.706 25.1423 82.076 26.7211 80.9375 27.8998L58.8375 49.9998L80.9375 72.0998C82.076 73.2786 82.706 74.8574 82.6917 76.4961C82.6775 78.1348 82.0202 79.7024 80.8614 80.8612C79.7026 82.02 78.135 82.6773 76.4963 82.6915C74.8575 82.7058 73.2788 82.0758 72.1 80.9373L50 58.8373L27.9 80.9373C26.7213 82.0758 25.1425 82.7058 23.5038 82.6915C21.865 82.6773 20.2975 82.02 19.1387 80.8612C17.9799 79.7024 17.3225 78.1348 17.3083 76.4961C17.2941 74.8574 17.924 73.2786 19.0625 72.0998L41.1625 49.9998L19.0625 27.8998C17.8908 26.7278 17.2326 25.1384 17.2326 23.4811C17.2326 21.8238 17.8908 20.2344 19.0625 19.0623V19.0623Z" fill="#289CA4"/>
</svg>
